<svg xmlns="http://www.w3.org/2000/svg" xmlns:xlink="http://www.w3.org/1999/xlink" width="500" zoomAndPan="magnify" viewBox="0 0 375 374.999991" height="500" preserveAspectRatio="xMidYMid meet" version="1.0"><path fill="#7782ac" d="M 189.371094 0 C 84.835938 0 0.09375 84.746094 0.09375 189.28125 C 0.09375 218.84375 6.875 246.824219 18.960938 271.75 C 11.191406 251.480469 6.921875 229.476562 6.921875 206.46875 C 6.921875 105.707031 88.605469 24.019531 189.371094 24.019531 C 290.132812 24.019531 371.816406 105.707031 371.816406 206.46875 C 371.816406 229.476562 367.550781 251.480469 359.777344 271.75 C 371.863281 246.824219 378.644531 218.84375 378.644531 189.28125 C 378.644531 84.746094 293.902344 0 189.371094 0 M 225.527344 109.757812 L 262.003906 140.449219 L 262.003906 123.175781 L 291.316406 123.175781 L 291.316406 165.109375 L 349.933594 214.421875 L 291.316406 214.421875 L 291.316406 316.242188 C 275.429688 317.339844 245.007812 311.851562 231.941406 307.894531 C 218.875 303.9375 227.652344 306.597656 225.527344 305.960938 Z M 209.367188 141.882812 L 191.140625 141.882812 L 191.140625 160.109375 L 209.367188 160.109375 Z M 187.59375 141.882812 L 169.367188 141.882812 L 169.367188 160.109375 L 187.59375 160.109375 Z M 209.367188 163.53125 L 191.140625 163.53125 L 191.140625 181.757812 L 209.367188 181.757812 Z M 187.59375 163.53125 L 169.367188 163.53125 L 169.367188 181.757812 L 187.59375 181.757812 Z M 87.417969 278.359375 L 87.417969 214.421875 L 28.800781 214.421875 L 87.417969 165.109375 L 116.730469 140.449219 L 153.210938 109.757812 L 153.210938 286.722656 C 128.554688 281.371094 106.78125 278.367188 87.417969 278.359375 Z M 189.371094 79.339844 L 221.171875 106.097656 L 221.171875 304.667969 C 198.074219 297.8125 176.945312 292.058594 157.5625 287.691406 L 157.5625 106.097656 Z M 37.148438 326.066406 C 120.914062 295.867188 209.773438 370.84375 315.941406 357.316406 C 189.457031 393.515625 165.257812 314.527344 37.148438 326.066406 Z M 359.753906 272.023438 C 359.753906 272.023438 348.035156 355.746094 231.941406 320.582031 C 115.851562 285.421875 47.757812 275.371094 1.988281 325.605469 C 103.824219 255.101562 353.183594 452.238281 359.753906 272.023438 Z M 359.753906 272.023438 " fill-opacity="1" fill-rule="evenodd"/></svg>